<svg clip-rule="evenodd" fill-rule="evenodd" stroke-linejoin="round" stroke-miterlimit="2" viewBox="0 0 24 24" xmlns="http://www.w3.org/2000/svg"><path d="m17.5 11c2.484 0 4.5 2.016 4.5 4.5s-2.016 4.5-4.5 4.5-4.5-2.016-4.5-4.5 2.016-4.5 4.5-4.5zm-5.346 6.999c-.052.001-.104.001-.156.001-4.078 0-7.742-3.093-9.854-6.483-.096-.159-.144-.338-.144-.517s.049-.358.145-.517c2.111-3.39 5.775-6.483 9.853-6.483 4.143 0 7.796 3.09 9.864 6.493.092.156.138.332.138.507 0 .179-.062.349-.15.516-1.079-1.178-2.629-1.916-4.35-1.916-.58 0-1.141.084-1.671.24-.498-1.643-2.025-2.84-3.829-2.84-2.208 0-4 1.792-4 4 0 2.08 1.591 3.792 3.622 3.982-.014.171-.022.343-.022.518 0 .893.199 1.74.554 2.499zm6.053-2.499s.642-.642 1.061-1.061c.187-.187.187-.519 0-.707-.188-.187-.52-.187-.707 0-.419.419-1.061 1.061-1.061 1.061s-.642-.642-1.061-1.061c-.187-.187-.519-.187-.707 0-.187.188-.187.52 0 .707.419.419 1.061 1.061 1.061 1.061s-.642.642-1.061 1.061c-.187.187-.187.519 0 .707.188.187.52.187.707 0 .419-.419 1.061-1.061 1.061-1.061s.642.642 1.061 1.061c.187.187.519.187.707 0 .187-.188.187-.52 0-.707-.419-.419-1.061-1.061-1.061-1.061zm-6.259-2.001c-1.356-.027-2.448-1.136-2.448-2.499 0-1.38 1.12-2.5 2.5-2.5 1.193 0 2.192.837 2.44 1.955-1.143.696-2.031 1.768-2.492 3.044z" fill-rule="nonzero"/></svg>